<?xml version="1.0" encoding="UTF-8" standalone="no"?>
<!DOCTYPE svg PUBLIC "-//W3C//DTD SVG 1.1//EN" "http://www.w3.org/Graphics/SVG/1.1/DTD/svg11.dtd">
<svg width="100%" height="100%" viewBox="0 0 86 89" version="1.1" xmlns="http://www.w3.org/2000/svg" xmlns:xlink="http://www.w3.org/1999/xlink" xml:space="preserve" xmlns:serif="http://www.serif.com/" style="fill-rule:evenodd;clip-rule:evenodd;stroke-linejoin:round;stroke-miterlimit:2;">
    <g transform="matrix(1,0,0,1.06452,0,-4.06452)">
        <rect x="16" y="32" width="57" height="31" style="fill:rgb(235,235,235);"/>
    </g>
    <g transform="matrix(1.51602,0,0,1.49169,-1270.98,-789.292)">
        <g transform="matrix(12,0,0,12,851.654,559.011)">
            <rect x="0.093" y="-0.716" width="0.095" height="0.716" style="fill-rule:nonzero;"/>
        </g>
        <g transform="matrix(12,0,0,12,854.988,559.011)">
            <path d="M0.066,-0l-0,-0.519l0.079,0l0,0.074c0.038,-0.057 0.093,-0.085 0.165,-0.085c0.031,-0 0.06,0.005 0.086,0.017c0.026,0.011 0.046,0.026 0.059,0.044c0.013,0.018 0.022,0.04 0.027,0.065c0.004,0.016 0.005,0.044 0.005,0.085l0,0.319l-0.088,-0l0,-0.315c0,-0.036 -0.003,-0.063 -0.01,-0.081c-0.007,-0.017 -0.019,-0.032 -0.036,-0.042c-0.018,-0.011 -0.038,-0.016 -0.061,-0.016c-0.038,-0 -0.07,0.012 -0.097,0.036c-0.028,0.023 -0.041,0.068 -0.041,0.135l-0,0.283l-0.088,-0Z" style="fill-rule:nonzero;"/>
        </g>
        <g transform="matrix(12,0,0,12,861.662,559.011)">
            <path d="M0.258,-0.079l0.013,0.078c-0.025,0.005 -0.047,0.008 -0.067,0.008c-0.032,-0 -0.057,-0.005 -0.074,-0.015c-0.018,-0.01 -0.03,-0.024 -0.037,-0.04c-0.007,-0.017 -0.011,-0.051 -0.011,-0.104l0,-0.298l-0.064,-0l-0,-0.069l0.064,0l0,-0.128l0.087,-0.053l0,0.181l0.089,0l-0,0.069l-0.089,-0l0,0.303c0,0.025 0.002,0.041 0.005,0.048c0.003,0.008 0.008,0.013 0.015,0.017c0.007,0.005 0.017,0.007 0.03,0.007c0.01,-0 0.023,-0.001 0.039,-0.004Z" style="fill-rule:nonzero;"/>
        </g>
        <g transform="matrix(12,0,0,12,864.996,559.011)">
            <rect x="0.064" y="-0.716" width="0.088" height="0.716" style="fill-rule:nonzero;"/>
        </g>
        <g transform="matrix(12,0,0,12,851.654,571.011)">
            <path d="M0.161,-0.618c-0.015,-0 -0.029,-0.006 -0.04,-0.017c-0.012,-0.011 -0.017,-0.024 -0.017,-0.04c-0,-0.015 0.005,-0.029 0.017,-0.04c0.011,-0.011 0.025,-0.016 0.04,-0.016c0.016,-0 0.029,0.005 0.04,0.016c0.012,0.011 0.017,0.025 0.017,0.04c0,0.016 -0.005,0.029 -0.017,0.04c-0.011,0.011 -0.024,0.017 -0.04,0.017Zm0.022,0.396c0,0.02 0.001,0.049 0.002,0.088c0.001,0.039 0.002,0.068 0.002,0.088c-0,0.014 -0.005,0.026 -0.014,0.035c-0.008,0.009 -0.02,0.013 -0.034,0.013c-0.014,0 -0.026,-0.004 -0.035,-0.013c-0.009,-0.009 -0.013,-0.021 -0.013,-0.035c-0,-0.02 -0.001,-0.049 -0.002,-0.088c-0.001,-0.039 -0.002,-0.068 -0.002,-0.088c0,-0.03 0.002,-0.068 0.005,-0.114c0.004,-0.046 0.005,-0.084 0.005,-0.115c0,-0.014 0.005,-0.026 0.014,-0.035c0.009,-0.009 0.02,-0.014 0.034,-0.014c0.014,0 0.025,0.005 0.034,0.014c0.009,0.009 0.014,0.021 0.014,0.035c-0,0.031 -0.002,0.069 -0.005,0.115c-0.003,0.046 -0.005,0.084 -0.005,0.114Z" style="fill-rule:nonzero;"/>
        </g>
        <g transform="matrix(12,0,0,12,855.018,571.011)">
            <path d="M0.442,0.035c-0.028,-0 -0.043,-0.016 -0.047,-0.046l-0.014,-0.107c-0.004,-0.038 -0.006,-0.074 -0.006,-0.107c-0,-0.009 0,-0.025 0.001,-0.046c0.001,-0.022 0.002,-0.038 0.002,-0.047c-0,-0.07 -0.013,-0.105 -0.039,-0.105c-0.037,-0 -0.071,0.021 -0.105,0.065c-0.03,0.039 -0.053,0.089 -0.07,0.149c-0.001,0.013 -0.002,0.029 -0.004,0.048c-0.002,0.016 -0.003,0.032 -0.003,0.047c-0,0.01 0.001,0.025 0.003,0.044c0.002,0.02 0.003,0.034 0.003,0.044c-0,0.015 -0.005,0.027 -0.014,0.036c-0.009,0.009 -0.02,0.013 -0.034,0.013c-0.015,0 -0.026,-0.004 -0.035,-0.013c-0.009,-0.009 -0.013,-0.021 -0.013,-0.036c-0,-0.01 -0.001,-0.024 -0.003,-0.044c-0.002,-0.019 -0.003,-0.034 -0.003,-0.044c-0,-0.033 0.002,-0.08 0.007,-0.139c0.004,-0.06 0.007,-0.106 0.007,-0.14c-0,-0.01 -0.001,-0.025 -0.002,-0.046c-0.001,-0.02 -0.002,-0.036 -0.002,-0.046c0,-0.014 0.005,-0.026 0.014,-0.035c0.009,-0.009 0.021,-0.013 0.035,-0.013c0.03,-0 0.046,0.021 0.049,0.063l0.001,0.057c0.055,-0.073 0.111,-0.109 0.169,-0.109c0.052,0 0.088,0.023 0.109,0.069c0.014,0.03 0.021,0.076 0.023,0.136l-0,0.049l-0.001,0.045c0,0.027 0.004,0.062 0.011,0.105c0.007,0.043 0.01,0.078 0.01,0.104c0,0.015 -0.004,0.026 -0.014,0.035c-0.009,0.009 -0.021,0.014 -0.035,0.014Z" style="fill-rule:nonzero;"/>
        </g>
        <g transform="matrix(12,0,0,12,861.299,571.011)">
            <path d="M0.397,-0.376c-0.017,0 -0.03,-0.006 -0.037,-0.018c-0.005,-0.009 -0.009,-0.026 -0.013,-0.053c-0.024,0.006 -0.062,0.018 -0.113,0.034c-0.052,0.021 -0.078,0.047 -0.079,0.078c0.01,0.003 0.02,0.006 0.029,0.007c0.075,0.014 0.131,0.032 0.167,0.056c0.053,0.034 0.08,0.083 0.08,0.148c-0,0.053 -0.023,0.093 -0.069,0.12c-0.038,0.022 -0.086,0.033 -0.145,0.033c-0.042,0 -0.083,-0.007 -0.122,-0.021c-0.05,-0.018 -0.075,-0.044 -0.075,-0.076c0,-0.013 0.005,-0.025 0.015,-0.035c0.011,-0.009 0.022,-0.014 0.035,-0.014c0.01,-0 0.023,0.008 0.039,0.023c0.008,0.008 0.026,0.014 0.053,0.019c0.022,0.004 0.04,0.006 0.055,0.006c0.028,-0 0.052,-0.004 0.073,-0.01c0.03,-0.01 0.045,-0.025 0.045,-0.045c-0,-0.044 -0.031,-0.074 -0.093,-0.09l-0.051,-0.011c-0.043,-0.01 -0.074,-0.021 -0.092,-0.033c-0.026,-0.019 -0.039,-0.046 -0.039,-0.083c-0,-0.068 0.032,-0.116 0.096,-0.145c0.019,-0.009 0.051,-0.02 0.094,-0.032c0.042,-0.012 0.073,-0.022 0.092,-0.031c0.013,-0.006 0.028,-0.009 0.043,-0.009c0.014,0 0.026,0.005 0.035,0.014c0.009,0.009 0.013,0.021 0.013,0.036c0,0.009 0.002,0.023 0.006,0.041c0.004,0.018 0.006,0.032 0.006,0.042c0,0.014 -0.004,0.026 -0.013,0.035c-0.009,0.009 -0.021,0.014 -0.035,0.014Z" style="fill-rule:nonzero;"/>
        </g>
        <g transform="matrix(12,0,0,12,867.141,571.011)">
            <path d="M0.161,-0.618c-0.015,-0 -0.029,-0.006 -0.04,-0.017c-0.012,-0.011 -0.017,-0.024 -0.017,-0.04c-0,-0.015 0.005,-0.029 0.017,-0.04c0.011,-0.011 0.025,-0.016 0.04,-0.016c0.016,-0 0.029,0.005 0.04,0.016c0.012,0.011 0.017,0.025 0.017,0.04c0,0.016 -0.005,0.029 -0.017,0.04c-0.011,0.011 -0.024,0.017 -0.04,0.017Zm0.022,0.396c0,0.02 0.001,0.049 0.002,0.088c0.001,0.039 0.002,0.068 0.002,0.088c-0,0.014 -0.005,0.026 -0.014,0.035c-0.008,0.009 -0.02,0.013 -0.034,0.013c-0.014,0 -0.026,-0.004 -0.035,-0.013c-0.009,-0.009 -0.013,-0.021 -0.013,-0.035c-0,-0.02 -0.001,-0.049 -0.002,-0.088c-0.001,-0.039 -0.002,-0.068 -0.002,-0.088c0,-0.03 0.002,-0.068 0.005,-0.114c0.004,-0.046 0.005,-0.084 0.005,-0.115c0,-0.014 0.005,-0.026 0.014,-0.035c0.009,-0.009 0.02,-0.014 0.034,-0.014c0.014,0 0.025,0.005 0.034,0.014c0.009,0.009 0.014,0.021 0.014,0.035c-0,0.031 -0.002,0.069 -0.005,0.115c-0.003,0.046 -0.005,0.084 -0.005,0.114Z" style="fill-rule:nonzero;"/>
        </g>
        <g transform="matrix(12,0,0,12,870.504,571.011)">
            <path d="M0.518,-0.431c-0.004,0.048 -0.006,0.096 -0.006,0.143c-0,0.109 0.005,0.191 0.015,0.246c0.001,0.005 0.001,0.008 0.001,0.011c-0,0.013 -0.005,0.024 -0.014,0.032c-0.009,0.009 -0.02,0.013 -0.032,0.013c-0.02,0 -0.035,-0.014 -0.044,-0.044c-0.023,0.017 -0.048,0.03 -0.073,0.039c-0.025,0.009 -0.052,0.013 -0.079,0.013c-0.067,0 -0.123,-0.022 -0.167,-0.067c-0.046,-0.046 -0.069,-0.105 -0.069,-0.177c0,-0.087 0.023,-0.156 0.069,-0.209c0.046,-0.052 0.106,-0.078 0.18,-0.078c0.038,-0 0.067,0.006 0.087,0.017l0.046,0.034c0.005,-0.137 0.01,-0.229 0.016,-0.277c0.004,-0.029 0.019,-0.043 0.045,-0.043c0.029,-0 0.044,0.015 0.044,0.047c0,0.045 -0.006,0.145 -0.019,0.3Zm-0.217,0.013c-0.055,-0 -0.096,0.016 -0.123,0.048c-0.028,0.033 -0.041,0.081 -0.041,0.146c-0,0.042 0.015,0.078 0.044,0.109c0.03,0.03 0.065,0.045 0.105,0.045c0.027,0 0.051,-0.005 0.069,-0.015c0.012,-0.006 0.03,-0.019 0.055,-0.04c0.005,-0.005 0.009,-0.01 0.014,-0.016l-0.002,-0.084l0.001,-0.057l0.001,-0.057c-0.013,-0.027 -0.029,-0.046 -0.049,-0.06c-0.021,-0.013 -0.046,-0.019 -0.074,-0.019Z" style="fill-rule:nonzero;"/>
        </g>
        <g transform="matrix(12,0,0,12,877.553,571.011)">
            <path d="M0.296,0.022c-0.074,0 -0.133,-0.018 -0.179,-0.055c-0.05,-0.04 -0.075,-0.097 -0.075,-0.171c0,-0.084 0.021,-0.155 0.062,-0.213c0.045,-0.062 0.104,-0.093 0.179,-0.093c0.054,-0 0.098,0.009 0.132,0.027c0.042,0.023 0.063,0.057 0.063,0.104c0,0.032 -0.018,0.062 -0.055,0.088c-0.016,0.012 -0.051,0.03 -0.104,0.055l-0.186,0.089c0.018,0.027 0.041,0.047 0.068,0.061c0.027,0.013 0.059,0.02 0.095,0.02c0.022,0 0.049,-0.004 0.079,-0.013c0.038,-0.01 0.063,-0.024 0.074,-0.042c0.011,-0.017 0.023,-0.026 0.036,-0.026c0.011,0 0.021,0.004 0.03,0.013c0.009,0.009 0.014,0.019 0.014,0.03c-0,0.036 -0.029,0.067 -0.088,0.093c-0.049,0.022 -0.098,0.033 -0.145,0.033Zm-0.013,-0.444c-0.04,-0 -0.073,0.015 -0.099,0.046c-0.027,0.031 -0.046,0.077 -0.059,0.139l0.149,-0.072c0.059,-0.028 0.101,-0.053 0.126,-0.074c-0.028,-0.026 -0.067,-0.039 -0.117,-0.039Z" style="fill-rule:nonzero;"/>
        </g>
    </g>
    <g transform="matrix(1,0,0,1,-819.27,-511.232)">
        <path d="M838,531l8,14" style="fill:none;"/>
    </g>
    <g transform="matrix(1,0,0,1,-819.27,-511.232)">
        <path d="M883.358,522.583c-8.945,-0 -46.917,-5.776 -54.489,28.538c-10.824,49.059 84.221,39.066 71.067,8.006c-10.965,-25.891 -26.067,-18.919 -27.188,-19.922c-0.511,-0.457 0.582,-7.07 0.682,-7.678c21.601,5.807 25.853,7.655 28.626,15.449c22.349,62.806 -99.317,76.155 -80.875,0.463c5.366,-22.025 11.728,-25.623 54.051,-35.739c8.272,-1.977 6.239,2.465 9.211,10.305" style="fill:rgb(0,118,255);"/>
    </g>
</svg>
