<svg xmlns="http://www.w3.org/2000/svg" xml:space="preserve" style="fill-rule:evenodd;clip-rule:evenodd;stroke-linejoin:round;stroke-miterlimit:2" viewBox="0 0 86 89">
    <path d="M16 32h57v31H16z" style="fill:#ebebeb" transform="matrix(1 0 0 1.06452 0 -4.065)"/>
    <text x="851.654" y="559.011" style="font-family:&quot;ArialMT&quot;,&quot;Arial&quot;,sans-serif;font-size:12px" transform="matrix(1.51602 0 0 1.49169 -1270.98 -789.292)">Intl</text>
    <text x="851.654" y="571.011" style="font-family:&quot;ComicSansMS&quot;,&quot;Comic Sans MS&quot;,cursive;font-size:12px" transform="matrix(1.51602 0 0 1.49169 -1270.98 -789.292)">in site</text>
    <path d="m838 531 8 14" style="fill:none" transform="translate(-819.27 -511.232)"/>
    <path d="M883.358 522.583c-8.945 0-46.917-5.776-54.489 28.538-10.824 49.059 84.221 39.066 71.067 8.006-10.965-25.891-26.067-18.919-27.188-19.922-.511-.457.582-7.07.682-7.678 21.601 5.807 25.853 7.655 28.626 15.449 22.349 62.806-99.317 76.155-80.875.463 5.366-22.025 11.728-25.623 54.051-35.739 8.272-1.977 6.239 2.465 9.211 10.305" style="fill:#0076ff" transform="translate(-819.27 -511.232)"/>
</svg>