<svg xmlns="http://www.w3.org/2000/svg" xml:space="preserve" style="fill-rule:evenodd;clip-rule:evenodd;stroke-linejoin:round;stroke-miterlimit:2" viewBox="0 0 86 89">
    <path d="M16 32h57v31H16z" style="fill:#ebebeb" transform="matrix(1 0 0 1.06452 0 -4.065)"/>
    <path d="M.093-.716h.095V0H.093z" style="fill-rule:nonzero" transform="matrix(18.19224 0 0 17.90028 20.144 44.58)"/>
    <path d="M.066 0v-.519h.079v.074A.186.186 0 0 1 .31-.53c.031 0 .06.005.086.017a.137.137 0 0 1 .059.044c.013.018.022.04.027.065a.423.423 0 0 1 .005.085V0H.399v-.315a.238.238 0 0 0-.01-.081.086.086 0 0 0-.036-.042.14.14 0 0 0-.158.02C.167-.395.154-.35.154-.283V0H.066Z" style="fill-rule:nonzero" transform="matrix(18.19224 0 0 17.90028 25.199 44.58)"/>
    <path d="m.258-.079.013.078a.347.347 0 0 1-.067.008.149.149 0 0 1-.074-.015.084.084 0 0 1-.037-.04.32.32 0 0 1-.011-.104V-.45H.018v-.069h.064v-.128L.169-.7v.181h.089v.069H.169v.303a.15.15 0 0 0 .005.048.031.031 0 0 0 .015.017c.007.005.017.007.03.007.01 0 .023-.001.039-.004Z" style="fill-rule:nonzero" transform="matrix(18.19224 0 0 17.90028 35.317 44.58)"/>
    <path d="M.064-.716h.088V0H.064z" style="fill-rule:nonzero" transform="matrix(18.19224 0 0 17.90028 40.371 44.58)"/>
    <path d="M.161-.618a.056.056 0 0 1-.04-.017.05.05 0 0 1-.017-.04c0-.015.005-.029.017-.04a.055.055 0 0 1 .04-.016c.016 0 .029.005.04.016a.052.052 0 0 1 .017.04.05.05 0 0 1-.017.04.054.054 0 0 1-.04.017Zm.022.396.002.088.002.088a.048.048 0 0 1-.014.035C.165-.002.153.002.139.002a.048.048 0 0 1-.035-.013.048.048 0 0 1-.013-.035L.089-.134.087-.222c0-.03.002-.068.005-.114.004-.046.005-.084.005-.115 0-.014.005-.026.014-.035A.046.046 0 0 1 .145-.5c.014 0 .025.005.034.014a.048.048 0 0 1 .014.035c0 .031-.002.069-.005.115a1.87 1.87 0 0 0-.005.114Z" style="fill-rule:nonzero" transform="matrix(18.19224 0 0 17.90028 20.144 62.48)"/>
    <path d="M.442.035C.414.035.399.019.395-.011L.381-.118a1.03 1.03 0 0 1-.005-.153l.002-.047c0-.07-.013-.105-.039-.105-.037 0-.071.021-.105.065a.439.439 0 0 0-.07.149L.16-.161a.383.383 0 0 0 0 .091l.003.044A.049.049 0 0 1 .149.01a.045.045 0 0 1-.034.013A.046.046 0 0 1 .08.01a.048.048 0 0 1-.013-.036.479.479 0 0 0-.003-.044.458.458 0 0 1-.003-.044c0-.033.002-.08.007-.139.004-.06.007-.106.007-.14L.073-.439.071-.485c0-.014.005-.026.014-.035A.048.048 0 0 1 .12-.533c.03 0 .046.021.049.063l.001.057c.055-.073.111-.109.169-.109a.11.11 0 0 1 .109.069c.014.03.021.076.023.136v.049L.47-.223c0 .027.004.062.011.105.007.043.01.078.01.104 0 .015-.004.026-.014.035a.048.048 0 0 1-.035.014Z" style="fill-rule:nonzero" transform="matrix(18.19224 0 0 17.90028 25.244 62.48)"/>
    <path d="M.397-.376C.38-.376.367-.382.36-.394a.18.18 0 0 1-.013-.053c-.024.006-.062.018-.113.034-.052.021-.078.047-.079.078.01.003.02.006.029.007a.467.467 0 0 1 .167.056c.053.034.08.083.08.148a.13.13 0 0 1-.069.12.286.286 0 0 1-.145.033.36.36 0 0 1-.122-.021C.045-.01.02-.036.02-.068c0-.013.005-.025.015-.035A.054.054 0 0 1 .07-.117c.01 0 .023.008.039.023.008.008.026.014.053.019A.263.263 0 0 0 .29-.079c.03-.01.045-.025.045-.045 0-.044-.031-.074-.093-.09L.191-.225a.301.301 0 0 1-.092-.033.096.096 0 0 1-.039-.083c0-.068.032-.116.096-.145A.651.651 0 0 1 .25-.518a.677.677 0 0 0 .092-.031.104.104 0 0 1 .043-.009c.014 0 .026.005.035.014a.048.048 0 0 1 .013.036.21.21 0 0 0 .006.041.208.208 0 0 1 .006.042.048.048 0 0 1-.013.035.048.048 0 0 1-.035.014Z" style="fill-rule:nonzero" transform="matrix(18.19224 0 0 17.90028 34.767 62.48)"/>
    <path d="M.161-.618a.056.056 0 0 1-.04-.017.05.05 0 0 1-.017-.04c0-.015.005-.029.017-.04a.055.055 0 0 1 .04-.016c.016 0 .029.005.04.016a.052.052 0 0 1 .017.04.05.05 0 0 1-.017.04.054.054 0 0 1-.04.017Zm.022.396.002.088.002.088a.048.048 0 0 1-.014.035C.165-.002.153.002.139.002a.048.048 0 0 1-.035-.013.048.048 0 0 1-.013-.035L.089-.134.087-.222c0-.03.002-.068.005-.114.004-.046.005-.084.005-.115 0-.014.005-.026.014-.035A.046.046 0 0 1 .145-.5c.014 0 .025.005.034.014a.048.048 0 0 1 .014.035c0 .031-.002.069-.005.115a1.87 1.87 0 0 0-.005.114Z" style="fill-rule:nonzero" transform="matrix(18.19224 0 0 17.90028 43.623 62.48)"/>
    <path d="M.518-.431a1.727 1.727 0 0 0-.006.143 1.488 1.488 0 0 0 .016.257.042.042 0 0 1-.014.032.044.044 0 0 1-.032.013C.462.014.447 0 .438-.03a.287.287 0 0 1-.073.039.234.234 0 0 1-.079.013.224.224 0 0 1-.167-.067.24.24 0 0 1-.069-.177c0-.087.023-.156.069-.209a.229.229 0 0 1 .18-.078c.038 0 .067.006.087.017l.046.034c.005-.137.01-.229.016-.277.004-.029.019-.043.045-.043.029 0 .044.015.044.047 0 .045-.006.145-.019.3Zm-.217.013c-.055 0-.096.016-.123.048-.028.033-.041.081-.041.146 0 .042.015.078.044.109.03.03.065.045.105.045a.144.144 0 0 0 .069-.015.329.329 0 0 0 .055-.04l.014-.016-.002-.084.001-.057.001-.057a.149.149 0 0 0-.049-.06.138.138 0 0 0-.074-.019Z" style="fill-rule:nonzero" transform="matrix(18.19224 0 0 17.90028 48.721 62.48)"/>
    <path d="M.296.022a.275.275 0 0 1-.179-.055.206.206 0 0 1-.075-.171.36.36 0 0 1 .062-.213.21.21 0 0 1 .179-.093c.054 0 .098.009.132.027a.111.111 0 0 1 .063.104c0 .032-.018.062-.055.088a.747.747 0 0 1-.104.055l-.186.089a.18.18 0 0 0 .068.061c.027.013.059.02.095.02a.281.281 0 0 0 .079-.013c.038-.01.063-.024.074-.042.011-.017.023-.026.036-.026.011 0 .021.004.03.013a.042.042 0 0 1 .014.03c0 .036-.029.067-.088.093a.354.354 0 0 1-.145.033ZM.283-.422a.123.123 0 0 0-.099.046.305.305 0 0 0-.059.139l.149-.072A.62.62 0 0 0 .4-.383a.165.165 0 0 0-.117-.039Z" style="fill-rule:nonzero" transform="matrix(18.19224 0 0 17.90028 59.408 62.48)"/>
    <path d="m838 531 8 14" style="fill:none" transform="translate(-819.27 -511.232)"/>
    <path d="M883.358 522.583c-8.945 0-46.917-5.776-54.489 28.538-10.824 49.059 84.221 39.066 71.067 8.006-10.965-25.891-26.067-18.919-27.188-19.922-.511-.457.582-7.07.682-7.678 21.601 5.807 25.853 7.655 28.626 15.449 22.349 62.806-99.317 76.155-80.875.463 5.366-22.025 11.728-25.623 54.051-35.739 8.272-1.977 6.239 2.465 9.211 10.305" style="fill:#0076ff" transform="translate(-819.27 -511.232)"/>
</svg>